<svg width="33" height="33" viewBox="0 0 33 33" fill="none" xmlns="http://www.w3.org/2000/svg">
<path d="M20.2125 0.429L20.0805 0.363L20.064 0.396C18.909 0.1485 17.721 0 16.5 0C7.392 0 0 7.392 0 16.5C0 25.608 7.392 33 16.5 33C25.608 33 33 25.608 33 16.5C33 8.6625 27.5385 2.112 20.2125 0.429ZM28.7265 11.55H15.543L20.0145 3.795C23.9745 4.884 27.192 7.788 28.7265 11.55ZM18.315 3.432L13.6455 11.55L11.748 14.85L7.26 7.095C9.71977 4.66212 13.0403 3.29832 16.5 3.3C17.1105 3.3 17.721 3.3495 18.315 3.432ZM6.105 8.3985L10.791 16.5L12.6885 19.8H3.729C3.465 18.744 3.3 17.6385 3.3 16.5C3.3 13.4475 4.356 10.6425 6.105 8.3985ZM4.2735 21.45H17.4405L12.969 29.205C11.0246 28.6601 9.23045 27.6782 7.72344 26.3342C6.21643 24.9902 5.03642 23.3196 4.2735 21.45ZM14.685 29.5515L21.2685 18.15L25.7565 25.905C23.2885 28.3355 19.9639 29.6985 16.5 29.7C15.873 29.7 15.279 29.634 14.685 29.5515ZM26.895 24.6015L20.295 13.2H29.2545C29.535 14.256 29.7 15.3615 29.7 16.5C29.7 19.5525 28.644 22.3575 26.895 24.6015Z" fill="#3C3C3C"/>
</svg>
